<?xml version="1.0" encoding="UTF-8"?>
<svg xmlns="http://www.w3.org/2000/svg" xmlns:xlink="http://www.w3.org/1999/xlink" width="720.9pt" height="411.4pt" viewBox="0 0 720.9 411.4" version="1.1">
<defs>
<clipPath id="clip1">
  <path d="M 0 372 L 720.898438 372 L 720.898438 411.398438 L 0 411.398438 Z M 0 372 "/>
</clipPath>
</defs>
<g id="surface1">
<path style=" stroke:none;fill-rule:evenodd;fill:rgb(7.446289%,8.616638%,6.272888%);fill-opacity:1;" d="M 616.851563 345.980469 C 615.75 342.964844 615.03125 335.652344 619.574219 336.558594 C 619.777344 338.359375 619.753906 340.789063 619.671875 342.621094 C 619.558594 345.203125 619.429688 346.300781 616.851563 345.980469 Z M 169.101563 308.527344 L 169.25 308.746094 C 167.054688 308.375 161.5625 307.570313 159.644531 308.636719 C 160.507813 310 160.035156 309.246094 162.238281 309.425781 C 164.941406 309.652344 167.105469 312.378906 169.347656 314.488281 C 174.101563 318.960938 172.953125 318.808594 180.8125 319.042969 C 179.945313 316.847656 181.257813 318.730469 179.207031 317.496094 C 177.058594 316.203125 174.003906 313.039063 172.023438 311.335938 C 171.027344 310.480469 170.121094 309.695313 169.101563 308.527344 Z M 208.140625 314.5625 C 210.484375 315.566406 210.90625 317.019531 213.035156 318.644531 C 214.859375 320.03125 218.09375 319.796875 220.78125 319.621094 L 220.78125 318.539063 C 218.382813 318.300781 213.558594 313.027344 211.695313 311.453125 C 207.636719 308.023438 208.246094 308.769531 202.445313 308.65625 C 200.203125 308.609375 199.777344 308.25 198.859375 309.53125 C 200.183594 311.378906 201.640625 309.652344 204.261719 311.300781 C 205.621094 312.15625 206.925781 313.769531 208.140625 314.5625 Z M 642.796875 308.636719 C 644.050781 311.210938 644.539063 307.988281 648.535156 311.199219 C 653.9375 315.542969 655.40625 320.097656 663.167969 319.195313 L 664.984375 318.46875 C 663.964844 316.40625 664.730469 319.253906 660.023438 315.28125 C 652.847656 309.222656 654.789063 308.117188 647.058594 308 L 643.941406 308.078125 C 642.953125 308.339844 643.386719 308.210938 642.796875 308.636719 Z M 406.640625 309.53125 C 408.179688 311.671875 409.699219 309.152344 412.566406 311.671875 L 421.699219 319.511719 C 422.996094 320.164063 423.722656 319.960938 425.429688 319.976563 C 427.335938 319.992188 428.28125 320.261719 429.476563 319.363281 C 428.675781 318.464844 428.402344 319.144531 424.890625 316.328125 C 416.683594 309.742188 419.855469 308.65625 409.34375 308.664063 C 408.011719 308.664063 406.839844 308.382813 406.640625 309.53125 Z M 227.238281 308.636719 C 228.347656 310.886719 230.074219 309.058594 231.503906 309.84375 C 232.589844 311.179688 237.289063 315.316406 238.613281 316.296875 C 241.449219 318.402344 239.710938 319.328125 245.804688 319.390625 L 248.375 319.214844 C 248.488281 319.183594 248.636719 319.105469 248.726563 319.074219 C 248.816406 319.046875 248.957031 318.976563 249.066406 318.917969 C 248.527344 315.976563 248.488281 319.089844 244.523438 315.28125 C 238.785156 309.773438 236.988281 307.195313 229.246094 307.953125 C 228.589844 308.015625 229.039063 307.90625 228.386719 308.082031 C 227.40625 308.339844 227.824219 308.222656 227.238281 308.636719 Z M 424.28125 308.636719 C 425.035156 310.164063 424.371094 309.410156 427.636719 309.746094 C 430.636719 310.050781 436.972656 318.691406 439.507813 319.472656 C 439.621094 319.507813 445.832031 320.507813 446.726563 318.46875 C 445.808594 316.167969 445.414063 318.488281 441.878906 315.425781 C 435.847656 310.195313 435.117188 307.101563 426.300781 307.949219 Z M 361.589844 309.917969 L 355.28125 309.882813 C 354.816406 310.984375 354.394531 317.441406 349.074219 316.988281 C 346.886719 316.804688 346.007813 315.976563 345.125 314.414063 C 344.644531 313.566406 344.457031 313.273438 344.132813 312.277344 C 343.6875 310.929688 343.707031 310.894531 343.167969 309.632813 L 337.128906 309.644531 C 336.398438 314.398438 341.496094 316.632813 344.753906 317.839844 C 347.554688 318.875 349.523438 319.667969 353.679688 318.132813 C 356.882813 316.945313 361.960938 315.539063 361.589844 309.921875 Z M 113.042969 319.855469 L 119.003906 319.953125 C 118.839844 317.257813 116.734375 316.90625 117.984375 313.882813 C 118.558594 312.488281 120.605469 311.121094 122.910156 311.28125 C 128.417969 311.660156 129.203125 318.515625 130.074219 319.785156 L 136.324219 319.925781 C 136.59375 316.609375 134.089844 313.652344 131.945313 312.160156 C 122.832031 305.8125 106.035156 308.597656 113.042969 319.855469 Z M 597.011719 319.8125 L 603.3125 319.925781 C 602.980469 315.972656 601.449219 315.460938 604.816406 312.84375 C 606.933594 311.191406 609.78125 310.75 613.027344 311.417969 L 616.53125 312.5 C 618.277344 313.101563 620.574219 315.589844 621.8125 316.917969 L 623.597656 319.558594 C 623.648438 319.640625 623.734375 319.789063 623.820313 319.890625 L 629.324219 319.925781 C 629.316406 318.097656 629.453125 318.160156 626.96875 315.351563 C 624.890625 313 621.054688 310.667969 617.890625 310.015625 C 615.597656 309.542969 616.863281 309.914063 615.253906 309.171875 C 613.433594 308.332031 607.167969 308.457031 605.839844 309.019531 C 602.53125 310.417969 598.953125 310.367188 596.640625 314.09375 C 595.023438 316.699219 596.039063 317.738281 597.011719 319.8125 Z M 545.652344 319.769531 L 551.941406 319.960938 C 551.691406 316.6875 549.527344 316.074219 553.21875 313.101563 C 556.316406 310.609375 560.765625 310.71875 564.925781 312.597656 C 565.574219 312.894531 567.507813 314.210938 567.882813 314.527344 C 568.359375 314.933594 568.550781 315.21875 569.054688 315.628906 C 569.277344 315.8125 570.496094 316.710938 570.53125 316.753906 L 572.265625 319.925781 L 577.957031 319.949219 C 578.097656 314.417969 567.730469 308.707031 560.828125 308.691406 C 550.882813 308.667969 556.460938 309.601563 552.3125 310.105469 C 550.457031 310.332031 548.160156 311.257813 546.976563 312.183594 C 545.480469 313.355469 544.324219 314.988281 544.523438 317.121094 C 544.628906 318.269531 545.175781 319.015625 545.652344 319.769531 Z M 24.847656 318.917969 C 27.636719 320.433594 26.867188 319.949219 31.898438 319.933594 C 31.726563 317.195313 30.703125 317.980469 31.167969 316.019531 C 32.289063 311.304688 41.410156 308.851563 47.875 314.417969 C 48.539063 314.988281 49.691406 316.09375 50.382813 316.855469 C 51.253906 317.820313 51.417969 318.664063 52.324219 319.820313 L 58.203125 319.9375 C 58.210938 316.757813 54.679688 313.460938 52.375 312.25 C 44.5 308.121094 21.9375 305.679688 24.847656 318.917969 Z M 83.203125 344.34375 C 79.347656 344.421875 78.171875 347.253906 74.632813 343.53125 C 70.019531 338.679688 72.820313 329.558594 78.246094 329.972656 C 82.703125 330.3125 82.976563 335.613281 83.25 336.238281 C 86.34375 336.039063 84.550781 334.886719 86.011719 332.53125 C 87.367188 330.34375 88.039063 330.679688 90.210938 329.644531 L 90.246094 327.566406 C 86.597656 327.164063 86.089844 329.8125 84.050781 330.976563 C 82.265625 330.226563 82.328125 328.5625 79.628906 327.371094 C 73.324219 324.589844 65.832031 329.257813 65.625 336.785156 C 65.222656 351.464844 82.898438 350.519531 83.203125 344.34375 Z M 467.171875 334.734375 C 465.496094 332.867188 463.441406 331.660156 463.832031 327.390625 C 464.058594 324.890625 466.050781 321.621094 468.773438 321.746094 C 472.785156 321.925781 473.917969 329.683594 471.359375 333.070313 C 469.972656 334.898438 470.046875 334.804688 467.171875 334.734375 Z M 471.796875 336.484375 C 471.824219 338.894531 470.691406 339.738281 469.21875 341.074219 L 456.625 340.527344 C 456.792969 343.535156 457.113281 341.832031 460.183594 345.375 C 464.394531 350.230469 467.011719 352.691406 474.210938 349.859375 C 475.855469 349.210938 475.878906 349.425781 476.007813 347.433594 C 473.578125 347.453125 471.722656 348.109375 469.683594 347.058594 C 468.488281 346.441406 466.464844 345.148438 466.152344 343.550781 C 471.917969 343.535156 478.441406 343.40625 479.402344 334.15625 C 479.953125 328.820313 478.71875 324.511719 474.621094 321.96875 C 469.769531 318.953125 462.03125 319.734375 458.320313 324.527344 C 455.457031 328.222656 457.46875 337.117188 466.964844 337.394531 C 469.964844 337.480469 469.828125 336.878906 471.796875 336.484375 Z M 510.289063 341.710938 C 506.121094 350.671875 500.234375 341.066406 502.605469 334.410156 C 503.570313 331.703125 506.371094 329.269531 509.078125 332.226563 C 510.816406 334.125 511.652344 338.789063 510.289063 341.710938 Z M 492.898438 346.667969 C 491.59375 346.175781 491.367188 346.714844 491.011719 344.847656 L 491.019531 329.195313 C 491.015625 328.023438 490.621094 324.589844 491.546875 323.785156 C 492.390625 323.054688 519.652344 322.902344 520.636719 323.777344 C 521.59375 324.625 521.203125 330.023438 520.910156 331.269531 C 518.425781 331.421875 515.714844 328.179688 505.382813 328.660156 C 502.285156 328.8125 501.601563 329.328125 500.5 330.058594 C 486.488281 342.101563 508.746094 355.601563 515.625 342.535156 C 516.507813 340.855469 517.265625 339.011719 516.539063 336.816406 C 515.757813 334.441406 514.320313 333.34375 513.898438 331.460938 C 515.425781 331.664063 519.714844 333.070313 521.175781 334.382813 L 521.191406 345.734375 C 519.828125 346.582031 519.335938 346.628906 518.632813 347.96875 C 519.183594 348.34375 518.765625 348.261719 519.734375 348.46875 C 520.222656 348.574219 520.960938 348.582031 521.480469 348.582031 C 524.515625 348.589844 527.597656 348.464844 530.636719 348.386719 C 528.589844 344.050781 528.121094 352.617188 528.121094 335.007813 C 528.121094 323.984375 527.113281 323.785156 530.867188 323.546875 C 531.523438 323.507813 531.5 323.601563 532.175781 323.4375 C 533.089844 323.21875 532.695313 323.335938 533.273438 322.9375 C 533.21875 320.769531 534.179688 321.078125 528.199219 321.121094 C 520.269531 321.179688 483.050781 320.519531 481.261719 321.597656 C 481.101563 324.679688 481.824219 322.96875 484.332031 323.914063 L 484.425781 343.976563 C 484.339844 345.46875 484.375 345.382813 483.605469 346.28125 C 482.835938 347.171875 483.179688 346.5 482.695313 347.140625 C 482.09375 347.9375 482.335938 347.320313 482.007813 348.511719 L 493.472656 348.542969 C 493.285156 347.160156 493.292969 347.484375 492.898438 346.667969 Z M 281.054688 331.207031 L 281.960938 329.84375 C 285.707031 329.511719 284.460938 332.234375 284.460938 335.902344 C 284.460938 338.984375 284.5625 342.226563 284.410156 345.289063 C 284.003906 346.359375 282.101563 346.792969 281.65625 348.21875 L 293.28125 348.148438 C 292.851563 346.894531 291.738281 346.109375 290.902344 345.289063 L 290.894531 323.609375 C 295.773438 323.296875 294.996094 324.363281 296.121094 322.492188 C 295.53125 321.265625 296.289063 321.867188 294.964844 321.386719 L 237.261719 321.285156 C 235.765625 321.632813 236.296875 321.238281 235.679688 322.492188 C 236.460938 323.773438 234.484375 323.507813 240.023438 323.503906 C 247.558594 323.5 252.003906 332.675781 245.941406 337.363281 C 243.53125 339.222656 239.957031 338.644531 236.695313 338.46875 C 237.007813 340.914063 236.789063 339.238281 240.921875 343.015625 C 244.808594 346.570313 248.21875 351.464844 254.675781 346.574219 C 255.839844 345.691406 256.207031 345.496094 256.089844 343.527344 C 253.394531 343.625 253.671875 345.070313 251.371094 344.320313 C 249.976563 343.859375 248.566406 342.9375 247.835938 341.710938 C 248.421875 340.953125 247.835938 341.367188 248.882813 340.75 C 249.921875 340.140625 250.734375 340.445313 252.800781 338.449219 C 253.265625 338 253.292969 337.941406 253.726563 337.539063 C 255.140625 336.253906 255.695313 335.898438 255.859375 333.6875 C 256.023438 331.433594 255.6875 329.707031 254.003906 327.691406 C 251.835938 325.09375 250.480469 325.796875 249.695313 323.730469 C 257.113281 323.433594 265.128906 323.695313 272.613281 323.703125 C 274.6875 323.707031 289.785156 322.152344 281.308594 328.0625 C 279.773438 329.132813 279.390625 329.945313 277.972656 330.734375 C 275.472656 329.914063 273.632813 324.445313 266.269531 327.277344 C 262.492188 328.730469 259.324219 332.171875 259.34375 337.238281 C 259.378906 345.511719 266.261719 350.140625 272.765625 348.140625 C 275.796875 347.210938 277.199219 346.257813 276.949219 344.082031 C 274.101563 344.175781 270.953125 348.347656 267.125 341.367188 C 264.105469 335.859375 268.910156 326.054688 275.042969 331.636719 C 277.128906 333.535156 275.390625 335.074219 277.527344 336.28125 C 278.910156 335.738281 278.460938 335.476563 279.230469 333.589844 C 279.773438 332.265625 280.078125 331.949219 281.054688 331.207031 Z M 158.933594 338.136719 C 161.160156 335.886719 162.695313 334.636719 162.644531 339.457031 C 162.613281 342.496094 163.265625 345.457031 160.457031 346.128906 C 158.148438 344.808594 158.699219 341.210938 158.933594 338.136719 Z M 174.417969 333.324219 C 174.046875 333.535156 174.515625 333.476563 173.375 333.726563 L 170.691406 333.835938 C 168.863281 333.585938 168.976563 333.320313 168.941406 331.476563 C 168.898438 329.234375 168.894531 326.132813 169.058594 323.75 L 174.730469 323.855469 C 174.847656 325.273438 175.089844 332.023438 174.417969 333.324219 Z M 152.871094 343.816406 C 153.429688 345.707031 156.921875 348.429688 159.160156 348.675781 C 162.460938 349.039063 165.214844 348.476563 167.382813 345.996094 C 170.222656 342.746094 169.007813 341.792969 169.335938 336.726563 L 174.707031 336.667969 L 174.742188 345.734375 C 172.113281 347.457031 172.648438 347.109375 172.390625 348.488281 L 183.480469 348.15625 C 183.570313 348.121094 183.707031 348.042969 183.8125 347.96875 C 183.140625 346.347656 183.445313 346.996094 181.742188 346.183594 C 181.089844 342.78125 181.253906 327.832031 181.550781 323.90625 L 198.492188 323.65625 C 201.238281 323.796875 200.9375 324.460938 200.5625 327.265625 C 196.890625 327.65625 195.847656 327.109375 191.378906 329.714844 C 188.765625 331.238281 187.15625 333.492188 186.8125 336.808594 C 186.3125 341.625 188.890625 344.09375 192.453125 346.820313 C 197.464844 350.652344 208.640625 347.542969 209.679688 345.375 C 210.191406 344.304688 209.363281 343.425781 207.828125 343.964844 C 203.308594 345.546875 200.058594 346.304688 196.035156 342.8125 C 191.972656 339.28125 192.703125 334.851563 197.199219 331.519531 C 201.164063 328.582031 201.8125 330.320313 207.40625 329.679688 C 207.742188 324.773438 205.777344 322.722656 212.765625 323.5 C 215.363281 323.785156 214.75 324.59375 214.734375 328.75 L 214.640625 345.734375 C 212.441406 347.308594 213.003906 346.457031 212.148438 347.96875 C 213.683594 348.992188 221.742188 348.570313 223.546875 348.46875 C 223.1875 346.019531 223.890625 348.035156 222.566406 346.554688 L 221.054688 345.933594 C 220.527344 343.09375 219.519531 324.261719 221.816406 323.453125 C 223.882813 322.722656 220.238281 323.628906 222.570313 323.230469 C 225.609375 322.710938 225.875 324.523438 226.804688 321.753906 C 224.84375 321.25 154.257813 321.117188 151.183594 321.699219 C 151.84375 323.433594 150.09375 323.164063 153.714844 323.292969 C 160.445313 323.535156 162.902344 321.558594 162.945313 326.023438 C 162.964844 327.941406 163.617188 332.554688 162.363281 333.789063 C 156.839844 335.242188 150.492188 335.808594 152.871094 343.816406 Z M 111.558594 332.148438 C 112.382813 329.835938 112.765625 329.566406 115.4375 329.976563 L 115.519531 345.875 C 114.390625 346.59375 113.433594 347.027344 113.136719 348.3125 L 124.179688 348.339844 C 123.773438 346.117188 121.980469 347.226563 121.65625 344.398438 C 121.449219 342.605469 121.660156 339.207031 121.660156 337.242188 L 121.953125 324.183594 C 122.515625 322.675781 128.585938 323.375 129.808594 323.675781 L 129.976563 345.734375 L 128.734375 346.394531 C 127.441406 347.835938 127.785156 346.082031 127.273438 348.484375 L 139.023438 348.53125 C 138.582031 345.621094 136.851563 347.472656 136.460938 344.363281 L 136.445313 325.1875 C 136.933594 321.949219 139.4375 324.71875 142.519531 322.933594 C 142.332031 320.628906 142.152344 321.113281 136.777344 321.121094 C 134.246094 321.121094 131.710938 321.117188 129.179688 321.121094 C 117.875 321.144531 25.902344 320.664063 22.128906 321.3125 C 21.851563 324.507813 23.238281 323.519531 25.914063 323.882813 L 26.023438 343.527344 C 25.96875 347.917969 24.753906 345.550781 23.964844 348.539063 L 35.5 347.96875 C 33.492188 343.945313 33.09375 350.921875 33.09375 337.242188 C 33.09375 333.089844 32.820313 327.902344 33.171875 323.882813 L 53.347656 323.699219 L 53.523438 327.15625 C 46.523438 327.503906 43.003906 327.75 39.351563 333.230469 C 38.402344 334.65625 37.914063 336.203125 38.21875 338.515625 C 38.613281 341.53125 41.671875 344.496094 44.304688 345.710938 C 51.433594 349 52.71875 346.046875 55.699219 346.378906 C 55.785156 348.183594 55.390625 348.046875 54.523438 349.253906 C 54.476563 349.316406 53.714844 350.539063 53.679688 350.632813 C 52.070313 355.238281 62.972656 350.417969 61.867188 338.90625 L 55.828125 338.867188 L 56.277344 344.09375 C 47.789063 348.027344 39.363281 334.628906 50.386719 330.394531 C 55.253906 328.523438 60.828125 333.179688 60.828125 326.988281 C 60.828125 325.808594 60.773438 325.085938 60.875 323.875 L 115.222656 323.710938 L 115.335938 326.980469 C 113.488281 327.789063 113.742188 327.011719 111.976563 328.523438 C 110.867188 329.472656 110.527344 330.460938 109.074219 330.96875 C 107.726563 330.117188 100.890625 321.257813 92.789063 330.785156 L 90.75 334.921875 C 90.28125 336.28125 90.3125 339.175781 90.804688 340.417969 C 93.625 347.566406 99.554688 350.898438 106.402344 347.09375 C 107.519531 346.472656 108.148438 346.140625 108.175781 344.386719 C 106.007813 344.324219 104.085938 345.625 101.53125 344.835938 C 95.359375 342.921875 96.945313 331.332031 101.476563 330.097656 C 103.773438 329.90625 105.148438 330.125 106.441406 331.414063 C 108.390625 333.351563 107.605469 332.894531 108.296875 336.207031 C 111.941406 336.121094 109.035156 334.109375 111.558594 332.148438 Z M 324.050781 340.859375 C 322.6875 341.523438 322.28125 342.195313 320.417969 342.292969 C 315.183594 342.554688 309.058594 334.261719 316.929688 329.257813 C 319.921875 327.355469 321.847656 328.554688 324.074219 329.59375 Z M 407.671875 329.644531 C 407.671875 331.371094 407.769531 333.347656 407.691406 335.039063 C 407.359375 342.078125 395.664063 342.070313 395.542969 334.59375 C 395.488281 331.320313 395.402344 327.152344 395.613281 323.9375 C 397.199219 323.660156 405.601563 323.296875 407.304688 324.082031 Z M 321.5 348.4375 L 333.0625 348.511719 C 332.691406 346.996094 332.417969 346.871094 330.910156 345.734375 L 330.804688 329.410156 C 337.570313 325.09375 345.785156 333.890625 339.976563 339.796875 C 339.015625 340.777344 336.886719 342.042969 335.640625 342.207031 C 335.039063 342.285156 333.988281 342.128906 333.296875 342.082031 C 333.421875 343.535156 333.71875 344.136719 334.933594 344.652344 C 339.203125 346.476563 347.3125 343.867188 347.972656 336.847656 C 348.378906 332.53125 347.222656 332.382813 346.28125 329.199219 C 344.902344 328.921875 343.445313 326.371094 340.105469 326.074219 C 336.902344 325.785156 333.011719 326.6875 330.847656 326.40625 C 330.757813 325.035156 330.320313 324.234375 331.40625 323.988281 C 332.277344 323.183594 330.097656 323.40625 332.933594 323.265625 C 334.300781 323.230469 352.785156 322.679688 353.878906 323.917969 C 354.832031 325.457031 354.472656 342.648438 354.121094 345.734375 L 352.167969 347.074219 C 351.5 347.675781 351.765625 347.414063 351.566406 348.492188 C 353.550781 348.558594 355.523438 348.523438 357.511719 348.527344 L 362.628906 348.15625 C 362.714844 348.121094 362.851563 348.039063 362.949219 347.96875 C 362.238281 346.285156 361.933594 346.84375 360.503906 345.734375 C 360.414063 344.640625 359.726563 325.164063 360.8125 324.023438 C 361.765625 323.019531 370.292969 323.296875 371.808594 323.671875 C 372.519531 323.960938 373.015625 324.59375 373.886719 325.308594 C 380.285156 330.546875 377.320313 336.625 372.90625 338.335938 C 370.351563 339.324219 367.390625 338.195313 365.296875 338.316406 C 365.175781 340.066406 365.4375 339.78125 366.679688 340.589844 C 372.421875 344.324219 376.386719 352.609375 383.609375 346.359375 C 384.695313 345.417969 385.109375 345.289063 385.152344 343.546875 C 381.933594 343.441406 382.441406 345.902344 378.839844 343.699219 C 377.207031 342.703125 377.964844 343.480469 376.941406 342.160156 C 377.582031 340.5625 378.355469 341.265625 381.441406 338.382813 C 383.019531 336.910156 384.007813 335.824219 384.09375 332.785156 C 384.320313 324.605469 377.796875 325.925781 376.816406 323.925781 C 377.898438 323.445313 385.539063 323.210938 387.433594 323.53125 C 389.941406 323.953125 389.019531 326.238281 389.03125 333.21875 C 390.011719 351.628906 405.875 342.648438 407.554688 340.492188 C 409.792969 344.082031 406.796875 346.792969 406.335938 347.40625 C 406.269531 347.496094 406.167969 347.875 406.121094 347.792969 C 406.070313 347.710938 405.972656 348.066406 405.914063 348.246094 L 416.390625 348.222656 C 415.511719 345.832031 414.363281 345.917969 414.089844 345.289063 C 413.886719 341.683594 414.03125 337.753906 414.03125 334.113281 C 414.03125 324.59375 412.21875 323.164063 418.277344 323.164063 C 423.875 323.167969 422.738281 323.921875 422.734375 329.644531 C 422.734375 331.730469 422.734375 333.816406 422.734375 335.902344 C 422.734375 341.933594 423.722656 345.574219 420.820313 346.945313 C 419.628906 347.5 420.246094 346.613281 419.960938 348.476563 L 431.332031 348.527344 C 431.023438 346.246094 430.351563 346.925781 429.082031 345.289063 L 428.980469 323.867188 C 431.195313 323.589844 437.78125 323.316406 439.578125 323.988281 C 440.304688 324.261719 442.644531 325.570313 443.035156 325.882813 C 447.019531 329.09375 446.378906 335.339844 443.15625 337.160156 C 442.65625 337.441406 441.871094 337.910156 441.5 338.117188 C 440.359375 338.753906 441.046875 338.609375 439.316406 338.703125 C 437.492188 338.804688 435.664063 338.503906 433.855469 338.503906 C 434.140625 340.222656 434.140625 340.019531 435.648438 340.925781 C 440.554688 343.875 443.292969 350.804688 449.539063 347.957031 C 451.441406 347.089844 453.820313 345.859375 453.410156 343.246094 C 449.214844 343.5625 452.273438 346.699219 445.265625 342.4375 C 446.570313 338.65625 452.550781 339.652344 452.695313 332.789063 C 452.855469 324.898438 446.097656 326.09375 445.21875 323.832031 C 446.839844 323.058594 451.679688 323.640625 454.0625 323.574219 C 456.554688 323.507813 455.726563 323.855469 456.570313 322.492188 C 455.972656 321.292969 456.40625 321.230469 452.6875 321.300781 C 451.050781 321.335938 449.410156 321.308594 447.769531 321.328125 L 306.519531 321.277344 C 303.722656 321.636719 305.230469 321.160156 304.667969 322.492188 C 305.167969 323.394531 303.703125 323.597656 308.800781 323.519531 C 310.585938 323.492188 312.382813 323.511719 314.167969 323.503906 C 315.917969 323.5 323.0625 323.003906 323.972656 323.902344 C 324.644531 324.574219 324.804688 326.71875 323.117188 326.84375 C 322.3125 326.902344 315.582031 323.960938 310.238281 328.390625 C 302.261719 335.007813 308.605469 345.222656 316.40625 345.625 C 320.980469 345.863281 321.785156 343.242188 324.210938 343.277344 L 324.277344 345.734375 C 322.703125 346.757813 322.121094 346.628906 321.5 348.4375 Z M 631.722656 333.550781 C 626.03125 334.6875 626.441406 333.15625 626.402344 331.480469 C 626.355469 329.304688 626.351563 326 626.546875 323.722656 L 631.808594 323.925781 Z M 581.070313 346.835938 L 580.878906 348.328125 L 591.703125 348.359375 C 591.320313 345.589844 589.648438 347.632813 589.40625 343.976563 L 589.597656 324.457031 C 589.625 324.363281 589.714844 324.222656 589.742188 324.152344 C 590.074219 323.269531 596.9375 322.125 597.539063 324.773438 L 597.640625 343.53125 C 597.515625 347.359375 596.46875 345.992188 595.210938 347.96875 C 597.121094 348.980469 603.695313 348.425781 606.394531 348.34375 C 605.472656 343.765625 603.945313 351.886719 603.945313 337.242188 C 603.945313 334.5625 603.554688 325.796875 604.160156 323.894531 C 604.589844 323.351563 618.726563 322.042969 619.441406 324.359375 C 619.675781 325.113281 619.609375 324.421875 619.726563 325.597656 L 619.566406 332.785156 C 619.535156 332.933594 619.476563 333.085938 619.449219 333.207031 C 619.425781 333.324219 619.371094 333.484375 619.320313 333.621094 C 619.179688 333.679688 618.976563 333.589844 618.886719 333.761719 L 616.128906 334.21875 C 609.09375 336 607.4375 343.503906 612.8125 346.875 C 617.878906 350.050781 625.945313 348.574219 626.261719 341.734375 C 626.394531 338.851563 625.644531 337.730469 626.800781 336.636719 C 627.59375 335.859375 630.375 335.9375 631.1875 336.542969 C 632.609375 337.625 632.078125 338.75 632.039063 343.074219 C 632.03125 344.039063 632.019531 345.269531 631.570313 345.90625 C 630.601563 347.265625 630.429688 345.800781 629.425781 347.96875 C 630.859375 348.921875 639.027344 348.617188 639.472656 348.546875 C 641.53125 348.214844 638.164063 349.003906 640.289063 348.335938 L 641.023438 347.96875 C 639.097656 344.59375 638.929688 350.878906 638.929688 336.796875 C 638.929688 333.714844 638.566406 326.140625 639.191406 323.605469 L 657.863281 323.558594 L 657.960938 327.101563 C 632.390625 330.035156 646.1875 356.09375 664.816406 346.628906 C 666.464844 345.792969 666.238281 346.09375 666.480469 344.183594 C 663.175781 344.570313 651.535156 347.976563 651.21875 338.15625 C 651.085938 334.101563 652.574219 332.296875 654.953125 330.863281 C 658.085938 328.976563 660.796875 330.351563 664.832031 329.558594 L 664.855469 323.855469 L 682.394531 323.660156 C 685.75 323.652344 685.285156 323.886719 685.167969 327.097656 C 680.722656 327.515625 680.898438 326.226563 677.195313 328.085938 C 676.597656 328.382813 674.535156 329.070313 673.902344 330.539063 C 673.5 334.398438 675.785156 336.246094 679.207031 336.375 C 680.871094 336.4375 682.890625 336.042969 684.332031 336.65625 C 694.074219 340.824219 682.035156 350.921875 673.101563 341.136719 C 670.097656 337.847656 672.089844 336.875 669.398438 336.214844 C 669.398438 336.214844 667.707031 336.472656 669.40625 339.457031 C 679.4375 357.105469 700.710938 345.453125 693.625 336.238281 C 689.640625 331.054688 681.785156 336.265625 680.378906 331.878906 C 680.578125 329.164063 689.382813 330.058594 692.101563 329.929688 C 693.261719 325.15625 690.316406 323.617188 695.3125 323.542969 C 697.410156 323.511719 697.285156 324.007813 698.066406 322.492188 C 697.457031 321.019531 699.019531 321.914063 696.6875 321.324219 L 561.265625 321.300781 C 557.988281 321.300781 554.710938 321.261719 551.433594 321.308594 C 549.796875 321.332031 548.15625 321.355469 546.519531 321.320313 C 540.59375 321.1875 542.851563 321.089844 542.140625 322.492188 C 543.238281 324.246094 543.527344 323.21875 546.15625 323.757813 L 546.238281 346.179688 C 544.445313 346.800781 544.371094 346.554688 543.664063 347.96875 C 544.210938 348.34375 543.789063 348.261719 544.757813 348.46875 L 549.199219 348.542969 C 551.308594 348.539063 553.417969 348.613281 555.515625 348.46875 C 555.214844 346.710938 554.441406 346.722656 553.238281 345.773438 L 553.097656 323.828125 L 583.023438 323.722656 L 583.125 326.945313 C 576.710938 330 578.964844 330.082031 576.90625 330.96875 C 576.902344 330.96875 568.269531 321.09375 561.085938 330.382813 C 558.222656 334.085938 557.601563 338.679688 559.8125 343.195313 C 561.917969 347.484375 568.007813 350.410156 573.855469 347.179688 C 575.285156 346.386719 575.675781 346.269531 575.699219 344.289063 C 572.859375 344.601563 572.945313 345.207031 569.144531 344.921875 C 565.917969 343.480469 563.960938 335.996094 566.882813 332.121094 C 569.75 328.3125 573.660156 330.125 575.148438 332.730469 C 575.925781 334.09375 575.394531 334.785156 576.109375 336.222656 L 577.628906 336.191406 C 578.601563 334.21875 577.386719 333.648438 580.453125 330.964844 C 581.832031 329.761719 580.71875 330.179688 582.789063 330.0625 L 582.871094 345.820313 Z M 581.070313 346.835938 "/>
<g clip-path="url(#clip1)" clip-rule="nonzero">
<path style=" stroke:none;fill-rule:evenodd;fill:rgb(7.446289%,8.616638%,6.272888%);fill-opacity:1;" d="M 0.078125 401.988281 L 0.078125 401.242188 L 1.046875 401.242188 C 1.878906 401.242188 2.539063 401.109375 2.980469 400.84375 C 3.417969 400.582031 3.769531 400.1875 3.988281 399.746094 C 4.121094 399.4375 4.164063 398.515625 4.164063 397.023438 L 4.164063 377.824219 C 4.164063 376.328125 4.078125 375.363281 3.945313 375.011719 C 3.769531 374.617188 3.460938 374.308594 2.980469 374.042969 C 2.496094 373.738281 1.878906 373.605469 1.046875 373.605469 L 0.078125 373.605469 L 0.078125 372.859375 L 13.082031 372.859375 C 16.597656 372.859375 19.367188 373.34375 21.476563 374.265625 C 24.066406 375.449219 26.042969 377.207031 27.363281 379.535156 C 28.722656 381.867188 29.382813 384.546875 29.382813 387.488281 C 29.382813 389.554688 29.074219 391.441406 28.417969 393.15625 C 27.757813 394.871094 26.878906 396.320313 25.867188 397.460938 C 24.8125 398.5625 23.585938 399.484375 22.222656 400.140625 C 20.859375 400.84375 19.191406 401.371094 17.214844 401.722656 C 16.335938 401.898438 14.972656 401.988281 13.082031 401.988281 Z M 11.152344 374.484375 L 11.152344 397.199219 C 11.152344 398.386719 11.195313 399.132813 11.328125 399.394531 C 11.457031 399.703125 11.632813 399.878906 11.898438 400.054688 C 12.292969 400.230469 12.863281 400.363281 13.566406 400.363281 C 15.984375 400.363281 17.828125 399.527344 19.058594 397.902344 C 20.773438 395.703125 21.652344 392.277344 21.652344 387.664063 C 21.652344 383.886719 21.082031 380.941406 19.894531 378.703125 C 18.972656 376.945313 17.742188 375.757813 16.289063 375.144531 C 15.28125 374.660156 13.566406 374.484375 11.152344 374.484375 Z M 49.726563 391.222656 L 38.699219 391.222656 C 38.828125 393.859375 39.53125 395.96875 40.851563 397.507813 C 41.816406 398.691406 43.003906 399.308594 44.410156 399.308594 C 45.246094 399.308594 46.035156 399.042969 46.738281 398.605469 C 47.441406 398.121094 48.1875 397.242188 48.980469 396.011719 L 49.726563 396.496094 C 48.628906 398.691406 47.441406 400.273438 46.121094 401.195313 C 44.804688 402.121094 43.265625 402.558594 41.554688 402.558594 C 38.566406 402.558594 36.324219 401.417969 34.789063 399.132813 C 33.558594 397.285156 32.941406 395 32.941406 392.277344 C 32.941406 388.9375 33.863281 386.257813 35.667969 384.28125 C 37.46875 382.304688 39.578125 381.339844 42.035156 381.339844 C 44.058594 381.339844 45.816406 382.171875 47.308594 383.84375 C 48.804688 385.46875 49.59375 387.972656 49.726563 391.222656 Z M 44.453125 389.816406 C 44.453125 387.53125 44.320313 385.953125 44.101563 385.074219 C 43.839844 384.238281 43.441406 383.578125 42.914063 383.140625 C 42.609375 382.875 42.210938 382.742188 41.683594 382.742188 C 40.980469 382.742188 40.367188 383.09375 39.882813 383.84375 C 39.050781 385.117188 38.609375 386.828125 38.609375 389.070313 L 38.609375 389.816406 Z M 60.09375 372.859375 L 60.09375 397.8125 C 60.09375 399.21875 60.269531 400.140625 60.578125 400.539063 C 60.929688 400.933594 61.589844 401.195313 62.554688 401.242188 L 62.554688 401.988281 L 51.613281 401.988281 L 51.613281 401.242188 C 52.539063 401.195313 53.195313 400.933594 53.636719 400.449219 C 53.941406 400.140625 54.074219 399.21875 54.074219 397.8125 L 54.074219 377.03125 C 54.074219 375.582031 53.898438 374.703125 53.59375 374.308594 C 53.242188 373.867188 52.582031 373.648438 51.613281 373.605469 L 51.613281 372.859375 Z M 72.660156 372.859375 L 72.660156 384.5 C 73.757813 383.359375 74.769531 382.523438 75.691406 382.042969 C 76.570313 381.558594 77.535156 381.339844 78.503906 381.339844 C 79.777344 381.339844 80.832031 381.691406 81.753906 382.394531 C 82.632813 383.140625 83.203125 383.972656 83.511719 384.941406 C 83.820313 385.90625 83.949219 387.53125 83.949219 389.816406 L 83.949219 397.636719 C 83.949219 399.175781 84.082031 400.140625 84.390625 400.492188 C 84.652344 400.890625 85.226563 401.152344 86.105469 401.242188 L 86.105469 401.988281 L 75.953125 401.988281 L 75.953125 401.242188 C 76.65625 401.152344 77.183594 400.84375 77.535156 400.363281 C 77.800781 400.011719 77.933594 399.085938 77.933594 397.636719 L 77.933594 388.675781 C 77.933594 387.050781 77.886719 385.996094 77.757813 385.554688 C 77.625 385.160156 77.40625 384.808594 77.097656 384.589844 C 76.789063 384.371094 76.4375 384.238281 76.085938 384.238281 C 75.515625 384.238281 74.945313 384.414063 74.417969 384.808594 C 73.890625 385.203125 73.273438 385.90625 72.660156 386.875 L 72.660156 397.636719 C 72.660156 399.085938 72.792969 399.964844 72.96875 400.316406 C 73.230469 400.800781 73.800781 401.109375 74.636719 401.242188 L 74.636719 401.988281 L 64.488281 401.988281 L 64.488281 401.242188 C 65.324219 401.152344 65.9375 400.890625 66.289063 400.40625 C 66.507813 400.097656 66.640625 399.175781 66.640625 397.636719 L 66.640625 377.207031 C 66.640625 375.671875 66.507813 374.703125 66.246094 374.351563 C 65.9375 373.957031 65.367188 373.738281 64.488281 373.605469 L 64.488281 372.859375 Z M 93.660156 372.199219 C 94.628906 372.199219 95.375 372.507813 96.03125 373.167969 C 96.691406 373.824219 97 374.617188 97 375.539063 C 97 376.460938 96.691406 377.207031 96.03125 377.867188 C 95.375 378.527344 94.582031 378.835938 93.660156 378.835938 C 92.738281 378.835938 91.992188 378.527344 91.332031 377.867188 C 90.671875 377.207031 90.367188 376.460938 90.367188 375.539063 C 90.367188 374.617188 90.671875 373.824219 91.332031 373.167969 C 91.992188 372.507813 92.738281 372.199219 93.660156 372.199219 Z M 96.691406 381.910156 L 96.691406 397.8125 C 96.691406 399.21875 96.867188 400.140625 97.175781 400.539063 C 97.527344 400.933594 98.1875 401.195313 99.152344 401.242188 L 99.152344 401.988281 L 88.210938 401.988281 L 88.210938 401.242188 C 89.136719 401.195313 89.792969 400.933594 90.234375 400.449219 C 90.539063 400.140625 90.671875 399.21875 90.671875 397.8125 L 90.671875 386.082031 C 90.671875 384.632813 90.496094 383.753906 90.191406 383.316406 C 89.839844 382.917969 89.179688 382.699219 88.210938 382.65625 L 88.210938 381.910156 Z M 131.53125 392.058594 L 139.484375 372.859375 L 151.257813 372.859375 L 151.257813 373.605469 L 150.335938 373.605469 C 149.457031 373.605469 148.800781 373.738281 148.273438 374.042969 C 147.921875 374.265625 147.613281 374.617188 147.394531 375.097656 C 147.261719 375.449219 147.171875 376.328125 147.171875 377.824219 L 147.171875 397.023438 C 147.171875 398.515625 147.261719 399.4375 147.394531 399.835938 C 147.570313 400.1875 147.875 400.539063 148.359375 400.800781 C 148.84375 401.109375 149.5 401.242188 150.335938 401.242188 L 151.257813 401.242188 L 151.257813 401.988281 L 136.101563 401.988281 L 136.101563 401.242188 L 137.066406 401.242188 C 137.902344 401.242188 138.605469 401.066406 139.089844 400.800781 C 139.441406 400.582031 139.75 400.230469 139.96875 399.746094 C 140.101563 399.394531 140.1875 398.472656 140.1875 397.023438 L 140.1875 375.449219 L 128.984375 401.988281 L 128.5 401.988281 L 117.164063 375.671875 L 117.164063 396.144531 C 117.164063 397.59375 117.164063 398.472656 117.253906 398.78125 C 117.429688 399.527344 117.867188 400.097656 118.484375 400.539063 C 119.097656 401.019531 120.066406 401.242188 121.425781 401.242188 L 121.425781 401.988281 L 111.453125 401.988281 L 111.453125 401.242188 L 111.761719 401.242188 C 112.375 401.242188 112.992188 401.152344 113.5625 400.933594 C 114.089844 400.714844 114.53125 400.40625 114.792969 400.011719 C 115.101563 399.660156 115.320313 399.132813 115.496094 398.429688 C 115.496094 398.296875 115.539063 397.550781 115.539063 396.230469 L 115.539063 377.824219 C 115.539063 376.328125 115.453125 375.363281 115.277344 375.011719 C 115.144531 374.660156 114.792969 374.308594 114.308594 374.042969 C 113.828125 373.738281 113.167969 373.605469 112.375 373.605469 L 111.453125 373.605469 L 111.453125 372.859375 L 123.316406 372.859375 Z M 170.546875 391.222656 L 159.519531 391.222656 C 159.652344 393.859375 160.355469 395.96875 161.671875 397.507813 C 162.636719 398.691406 163.824219 399.308594 165.230469 399.308594 C 166.066406 399.308594 166.855469 399.042969 167.558594 398.605469 C 168.261719 398.121094 169.007813 397.242188 169.800781 396.011719 L 170.546875 396.496094 C 169.449219 398.691406 168.261719 400.273438 166.945313 401.195313 C 165.625 402.121094 164.089844 402.558594 162.375 402.558594 C 159.386719 402.558594 157.144531 401.417969 155.609375 399.132813 C 154.378906 397.285156 153.761719 395 153.761719 392.277344 C 153.761719 388.9375 154.6875 386.257813 156.488281 384.28125 C 158.289063 382.304688 160.398438 381.339844 162.859375 381.339844 C 164.878906 381.339844 166.636719 382.171875 168.128906 383.84375 C 169.625 385.46875 170.414063 387.972656 170.546875 391.222656 Z M 165.273438 389.816406 C 165.273438 387.53125 165.144531 385.953125 164.921875 385.074219 C 164.660156 384.238281 164.265625 383.578125 163.738281 383.140625 C 163.429688 382.875 163.035156 382.742188 162.507813 382.742188 C 161.804688 382.742188 161.1875 383.09375 160.707031 383.84375 C 159.871094 385.117188 159.429688 386.828125 159.429688 389.070313 L 159.429688 389.816406 Z M 181.003906 374.527344 L 181.003906 381.910156 L 185.75 381.910156 L 185.75 384.019531 L 181.003906 384.019531 L 181.003906 396.40625 C 181.003906 397.59375 181.046875 398.339844 181.179688 398.648438 C 181.265625 399 181.441406 399.261719 181.75 399.484375 C 182.011719 399.703125 182.234375 399.789063 182.496094 399.789063 C 183.417969 399.789063 184.296875 399.085938 185.089844 397.683594 L 185.75 398.164063 C 184.605469 400.890625 182.714844 402.25 180.125 402.25 C 178.851563 402.25 177.753906 401.898438 176.875 401.195313 C 175.996094 400.492188 175.421875 399.703125 175.203125 398.824219 C 175.070313 398.339844 174.984375 397.023438 174.984375 394.871094 L 174.984375 384.019531 L 172.347656 384.019531 L 172.347656 383.269531 C 174.148438 381.996094 175.6875 380.636719 176.960938 379.230469 C 178.234375 377.824219 179.332031 376.242188 180.300781 374.527344 Z M 195.984375 381.910156 L 195.984375 386.480469 C 197.304688 384.414063 198.488281 383.007813 199.5 382.347656 C 200.464844 381.691406 201.433594 381.339844 202.355469 381.339844 C 203.144531 381.339844 203.804688 381.601563 204.289063 382.085938 C 204.773438 382.566406 204.992188 383.269531 204.992188 384.148438 C 204.992188 385.117188 204.773438 385.863281 204.289063 386.390625 C 203.847656 386.917969 203.277344 387.179688 202.621094 387.179688 C 201.871094 387.179688 201.214844 386.917969 200.6875 386.433594 C 200.113281 385.953125 199.761719 385.6875 199.675781 385.644531 C 199.542969 385.554688 199.367188 385.511719 199.191406 385.511719 C 198.796875 385.511719 198.402344 385.644531 198.007813 385.996094 C 197.433594 386.480469 196.996094 387.179688 196.6875 388.058594 C 196.25 389.464844 196.027344 390.960938 196.027344 392.671875 L 196.027344 398.472656 C 196.027344 399.308594 196.074219 399.835938 196.203125 400.054688 C 196.335938 400.449219 196.601563 400.714844 196.953125 400.890625 C 197.304688 401.066406 197.875 401.195313 198.664063 401.242188 L 198.664063 401.988281 L 187.769531 401.988281 L 187.769531 401.242188 C 188.648438 401.152344 189.261719 400.933594 189.570313 400.539063 C 189.878906 400.097656 190.011719 399.042969 190.011719 397.285156 L 190.011719 386.171875 C 190.011719 384.984375 189.964844 384.28125 189.835938 383.929688 C 189.703125 383.535156 189.484375 383.226563 189.21875 383.050781 C 188.957031 382.875 188.472656 382.742188 187.769531 382.65625 L 187.769531 381.910156 Z M 216.632813 381.339844 C 218.390625 381.339844 220.019531 381.777344 221.511719 382.699219 C 223.003906 383.578125 224.148438 384.851563 224.9375 386.523438 C 225.683594 388.191406 226.082031 389.992188 226.082031 391.96875 C 226.082031 394.78125 225.378906 397.15625 223.925781 399.085938 C 222.171875 401.417969 219.796875 402.558594 216.722656 402.558594 C 213.691406 402.558594 211.40625 401.503906 209.78125 399.394531 C 208.15625 397.285156 207.320313 394.828125 207.320313 392.058594 C 207.320313 389.160156 208.15625 386.652344 209.824219 384.546875 C 211.492188 382.394531 213.734375 381.339844 216.632813 381.339844 Z M 216.765625 382.832031 C 216.019531 382.832031 215.40625 383.09375 214.878906 383.667969 C 214.351563 384.195313 214 385.292969 213.867188 386.917969 C 213.691406 388.542969 213.601563 390.785156 213.601563 393.683594 C 213.601563 395.175781 213.691406 396.628906 213.910156 397.945313 C 214.042969 398.957031 214.394531 399.746094 214.921875 400.273438 C 215.40625 400.800781 216.019531 401.066406 216.679688 401.066406 C 217.292969 401.066406 217.820313 400.890625 218.261719 400.539063 C 218.832031 400.054688 219.183594 399.351563 219.359375 398.472656 C 219.667969 397.15625 219.796875 394.386719 219.796875 390.257813 C 219.796875 387.839844 219.667969 386.171875 219.402344 385.25 C 219.140625 384.371094 218.742188 383.710938 218.214844 383.269531 C 217.820313 382.964844 217.335938 382.832031 216.765625 382.832031 Z M 250.332031 388.71875 L 250.332031 396.933594 C 250.332031 398.515625 250.421875 399.484375 250.640625 399.878906 C 250.816406 400.316406 251.167969 400.625 251.652344 400.890625 C 252.132813 401.109375 253.058594 401.242188 254.375 401.242188 L 254.375 401.988281 L 239.480469 401.988281 L 239.480469 401.242188 C 240.84375 401.242188 241.765625 401.109375 242.203125 400.84375 C 242.6875 400.625 243.039063 400.273438 243.214844 399.878906 C 243.433594 399.484375 243.523438 398.515625 243.523438 396.933594 L 243.523438 377.910156 C 243.523438 376.328125 243.433594 375.363281 243.214844 374.921875 C 243.039063 374.527344 242.6875 374.21875 242.203125 373.957031 C 241.722656 373.738281 240.800781 373.605469 239.480469 373.605469 L 239.480469 372.859375 L 253.011719 372.859375 C 256.527344 372.859375 259.121094 373.078125 260.746094 373.605469 C 262.371094 374.089844 263.6875 374.96875 264.742188 376.285156 C 265.753906 377.605469 266.28125 379.140625 266.28125 380.898438 C 266.28125 383.050781 265.492188 384.808594 263.953125 386.214844 C 262.984375 387.136719 261.578125 387.796875 259.824219 388.234375 L 266.808594 398.078125 C 267.730469 399.351563 268.390625 400.140625 268.742188 400.449219 C 269.355469 400.890625 270.015625 401.152344 270.804688 401.195313 L 270.804688 401.988281 L 261.625 401.988281 L 252.265625 388.71875 Z M 250.332031 374.484375 L 250.332031 387.179688 L 251.5625 387.179688 C 253.539063 387.179688 255.035156 387.003906 256.042969 386.652344 C 257.011719 386.257813 257.800781 385.601563 258.371094 384.675781 C 258.945313 383.710938 259.207031 382.480469 259.207031 380.941406 C 259.207031 378.746094 258.679688 377.121094 257.667969 376.066406 C 256.617188 375.011719 254.945313 374.484375 252.617188 374.484375 Z M 282.933594 399 C 280.472656 401.152344 278.277344 402.25 276.34375 402.25 C 275.199219 402.25 274.234375 401.855469 273.488281 401.109375 C 272.738281 400.363281 272.34375 399.4375 272.34375 398.296875 C 272.34375 396.757813 273.003906 395.398438 274.320313 394.167969 C 275.640625 392.9375 278.496094 391.3125 282.933594 389.289063 L 282.933594 387.269531 C 282.933594 385.777344 282.84375 384.808594 282.667969 384.414063 C 282.535156 384.019531 282.230469 383.710938 281.746094 383.402344 C 281.308594 383.09375 280.78125 382.964844 280.207031 382.964844 C 279.242188 382.964844 278.496094 383.183594 277.878906 383.578125 C 277.527344 383.84375 277.351563 384.148438 277.351563 384.5 C 277.351563 384.765625 277.527344 385.160156 277.925781 385.601563 C 278.496094 386.214844 278.757813 386.785156 278.757813 387.355469 C 278.757813 388.058594 278.496094 388.675781 277.96875 389.160156 C 277.441406 389.640625 276.78125 389.90625 275.902344 389.90625 C 275.023438 389.90625 274.277344 389.640625 273.660156 389.070313 C 273.046875 388.542969 272.738281 387.929688 272.738281 387.179688 C 272.738281 386.171875 273.136719 385.160156 273.96875 384.238281 C 274.804688 383.316406 275.902344 382.566406 277.398438 382.085938 C 278.847656 381.601563 280.339844 381.339844 281.921875 381.339844 C 283.855469 381.339844 285.347656 381.734375 286.445313 382.523438 C 287.546875 383.359375 288.292969 384.238281 288.601563 385.160156 C 288.820313 385.777344 288.90625 387.136719 288.90625 389.289063 L 288.90625 397.066406 C 288.90625 397.988281 288.953125 398.5625 289.039063 398.78125 C 289.082031 399 289.214844 399.175781 289.347656 399.308594 C 289.480469 399.4375 289.65625 399.484375 289.832031 399.484375 C 290.226563 399.484375 290.578125 399.21875 290.972656 398.691406 L 291.632813 399.21875 C 290.929688 400.273438 290.183594 401.066406 289.390625 401.503906 C 288.644531 402.03125 287.765625 402.25 286.796875 402.25 C 285.65625 402.25 284.777344 401.988281 284.117188 401.460938 C 283.460938 400.890625 283.0625 400.097656 282.933594 399 Z M 282.933594 397.417969 L 282.933594 390.742188 C 281.21875 391.75 279.902344 392.847656 279.066406 393.992188 C 278.496094 394.78125 278.230469 395.527344 278.230469 396.320313 C 278.230469 396.980469 278.453125 397.550781 278.933594 398.078125 C 279.285156 398.472656 279.8125 398.648438 280.429688 398.648438 C 281.175781 398.648438 282.011719 398.253906 282.933594 397.417969 Z M 298.617188 372.199219 C 299.585938 372.199219 300.332031 372.507813 300.988281 373.167969 C 301.648438 373.824219 301.957031 374.617188 301.957031 375.539063 C 301.957031 376.460938 301.648438 377.207031 300.988281 377.867188 C 300.332031 378.527344 299.539063 378.835938 298.617188 378.835938 C 297.695313 378.835938 296.949219 378.527344 296.289063 377.867188 C 295.628906 377.207031 295.324219 376.460938 295.324219 375.539063 C 295.324219 374.617188 295.628906 373.824219 296.289063 373.167969 C 296.949219 372.507813 297.695313 372.199219 298.617188 372.199219 Z M 301.648438 381.910156 L 301.648438 397.8125 C 301.648438 399.21875 301.824219 400.140625 302.132813 400.539063 C 302.484375 400.933594 303.144531 401.195313 304.109375 401.242188 L 304.109375 401.988281 L 293.167969 401.988281 L 293.167969 401.242188 C 294.09375 401.195313 294.75 400.933594 295.191406 400.449219 C 295.496094 400.140625 295.628906 399.21875 295.628906 397.8125 L 295.628906 386.082031 C 295.628906 384.632813 295.453125 383.753906 295.148438 383.316406 C 294.796875 382.917969 294.136719 382.699219 293.167969 382.65625 L 293.167969 381.910156 Z M 313.90625 372.859375 L 313.90625 397.8125 C 313.90625 399.21875 314.082031 400.140625 314.390625 400.539063 C 314.742188 400.933594 315.402344 401.195313 316.367188 401.242188 L 316.367188 401.988281 L 305.425781 401.988281 L 305.425781 401.242188 C 306.351563 401.195313 307.007813 400.933594 307.449219 400.449219 C 307.753906 400.140625 307.886719 399.21875 307.886719 397.8125 L 307.886719 377.03125 C 307.886719 375.582031 307.710938 374.703125 307.40625 374.308594 C 307.054688 373.867188 306.394531 373.648438 305.425781 373.605469 L 305.425781 372.859375 Z M 357.050781 372.199219 L 357.050781 382.304688 L 356.214844 382.304688 C 355.601563 379.667969 354.414063 377.605469 352.703125 376.199219 C 350.988281 374.792969 349.054688 374.089844 346.902344 374.089844 C 345.101563 374.089844 343.429688 374.617188 341.894531 375.671875 C 340.398438 376.679688 339.300781 378.085938 338.597656 379.757813 C 337.675781 381.910156 337.234375 384.324219 337.234375 387.003906 C 337.234375 389.597656 337.585938 391.96875 338.203125 394.125 C 338.863281 396.277344 339.917969 397.902344 341.320313 398.957031 C 342.683594 400.054688 344.53125 400.625 346.726563 400.625 C 348.570313 400.625 350.242188 400.230469 351.777344 399.4375 C 353.273438 398.605469 354.898438 397.242188 356.566406 395.265625 L 356.566406 397.769531 C 354.941406 399.484375 353.230469 400.714844 351.472656 401.503906 C 349.714844 402.25 347.648438 402.648438 345.320313 402.648438 C 342.199219 402.648438 339.433594 402.03125 337.0625 400.757813 C 334.644531 399.527344 332.753906 397.726563 331.480469 395.398438 C 330.164063 393.070313 329.503906 390.609375 329.503906 387.972656 C 329.503906 385.160156 330.25 382.523438 331.699219 380.0625 C 333.148438 377.558594 335.082031 375.625 337.542969 374.265625 C 340.003906 372.902344 342.640625 372.199219 345.40625 372.199219 C 347.429688 372.199219 349.582031 372.640625 351.867188 373.519531 C 353.183594 374.042969 354.019531 374.308594 354.371094 374.308594 C 354.855469 374.308594 355.25 374.132813 355.558594 373.78125 C 355.910156 373.472656 356.128906 372.945313 356.214844 372.199219 Z M 370.40625 381.339844 C 372.164063 381.339844 373.789063 381.777344 375.285156 382.699219 C 376.777344 383.578125 377.921875 384.851563 378.710938 386.523438 C 379.457031 388.191406 379.851563 389.992188 379.851563 391.96875 C 379.851563 394.78125 379.148438 397.15625 377.699219 399.085938 C 375.941406 401.417969 373.570313 402.558594 370.496094 402.558594 C 367.464844 402.558594 365.179688 401.503906 363.554688 399.394531 C 361.929688 397.285156 361.09375 394.828125 361.09375 392.058594 C 361.09375 389.160156 361.929688 386.652344 363.597656 384.546875 C 365.265625 382.394531 367.507813 381.339844 370.40625 381.339844 Z M 370.539063 382.832031 C 369.792969 382.832031 369.175781 383.09375 368.648438 383.667969 C 368.121094 384.195313 367.769531 385.292969 367.640625 386.917969 C 367.464844 388.542969 367.375 390.785156 367.375 393.683594 C 367.375 395.175781 367.464844 396.628906 367.683594 397.945313 C 367.816406 398.957031 368.167969 399.746094 368.695313 400.273438 C 369.175781 400.800781 369.792969 401.066406 370.449219 401.066406 C 371.066406 401.066406 371.59375 400.890625 372.03125 400.539063 C 372.605469 400.054688 372.957031 399.351563 373.132813 398.472656 C 373.4375 397.15625 373.570313 394.386719 373.570313 390.257813 C 373.570313 387.839844 373.4375 386.171875 373.175781 385.25 C 372.910156 384.371094 372.515625 383.710938 371.988281 383.269531 C 371.59375 382.964844 371.109375 382.832031 370.539063 382.832031 Z M 391.230469 381.910156 L 391.230469 386.480469 C 392.550781 384.414063 393.738281 383.007813 394.746094 382.347656 C 395.714844 381.691406 396.679688 381.339844 397.601563 381.339844 C 398.394531 381.339844 399.054688 381.601563 399.535156 382.085938 C 400.019531 382.566406 400.238281 383.269531 400.238281 384.148438 C 400.238281 385.117188 400.019531 385.863281 399.535156 386.390625 C 399.097656 386.917969 398.527344 387.179688 397.867188 387.179688 C 397.121094 387.179688 396.460938 386.917969 395.933594 386.433594 C 395.363281 385.953125 395.011719 385.6875 394.921875 385.644531 C 394.792969 385.554688 394.617188 385.511719 394.441406 385.511719 C 394.042969 385.511719 393.648438 385.644531 393.253906 385.996094 C 392.683594 386.480469 392.242188 387.179688 391.933594 388.058594 C 391.496094 389.464844 391.277344 390.960938 391.277344 392.671875 L 391.277344 398.472656 C 391.277344 399.308594 391.320313 399.835938 391.453125 400.054688 C 391.582031 400.449219 391.847656 400.714844 392.199219 400.890625 C 392.550781 401.066406 393.121094 401.195313 393.914063 401.242188 L 393.914063 401.988281 L 383.015625 401.988281 L 383.015625 401.242188 C 383.894531 401.152344 384.511719 400.933594 384.816406 400.539063 C 385.125 400.097656 385.257813 399.042969 385.257813 397.285156 L 385.257813 386.171875 C 385.257813 384.984375 385.214844 384.28125 385.082031 383.929688 C 384.949219 383.535156 384.730469 383.226563 384.464844 383.050781 C 384.203125 382.875 383.71875 382.742188 383.015625 382.65625 L 383.015625 381.910156 Z M 410.210938 399.921875 L 410.210938 407.433594 C 410.210938 408.488281 410.300781 409.191406 410.476563 409.542969 C 410.609375 409.941406 410.871094 410.203125 411.222656 410.378906 C 411.574219 410.554688 412.234375 410.644531 413.242188 410.644531 L 413.242188 411.390625 L 401.734375 411.390625 L 401.734375 410.644531 C 402.65625 410.597656 403.316406 410.378906 403.753906 409.894531 C 404.0625 409.542969 404.191406 408.710938 404.191406 407.304688 L 404.191406 386.082031 C 404.191406 384.632813 404.019531 383.753906 403.710938 383.316406 C 403.359375 382.917969 402.699219 382.699219 401.734375 382.65625 L 401.734375 381.910156 L 410.210938 381.910156 L 410.210938 384.546875 C 410.914063 383.535156 411.617188 382.789063 412.363281 382.304688 C 413.417969 381.644531 414.519531 381.339844 415.75 381.339844 C 417.242188 381.339844 418.558594 381.777344 419.789063 382.742188 C 420.976563 383.667969 421.898438 384.941406 422.558594 386.566406 C 423.171875 388.191406 423.480469 389.949219 423.480469 391.839844 C 423.480469 393.859375 423.171875 395.75 422.515625 397.417969 C 421.855469 399.085938 420.933594 400.363281 419.660156 401.242188 C 418.429688 402.121094 417.066406 402.558594 415.574219 402.558594 C 414.472656 402.558594 413.417969 402.339844 412.453125 401.8125 C 411.75 401.460938 411.003906 400.800781 410.210938 399.921875 Z M 410.210938 397.769531 C 411.441406 399.484375 412.761719 400.363281 414.167969 400.363281 C 414.957031 400.363281 415.574219 399.964844 416.101563 399.132813 C 416.847656 397.945313 417.199219 395.660156 417.199219 392.320313 C 417.199219 388.851563 416.800781 386.480469 415.96875 385.25 C 415.441406 384.371094 414.695313 383.972656 413.769531 383.972656 C 412.320313 383.972656 411.136719 385.027344 410.210938 387.09375 Z M 436.308594 381.339844 C 438.066406 381.339844 439.691406 381.777344 441.1875 382.699219 C 442.679688 383.578125 443.824219 384.851563 444.613281 386.523438 C 445.359375 388.191406 445.757813 389.992188 445.757813 391.96875 C 445.757813 394.78125 445.054688 397.15625 443.601563 399.085938 C 441.84375 401.417969 439.472656 402.558594 436.398438 402.558594 C 433.367188 402.558594 431.082031 401.503906 429.457031 399.394531 C 427.832031 397.285156 426.996094 394.828125 426.996094 392.058594 C 426.996094 389.160156 427.832031 386.652344 429.5 384.546875 C 431.167969 382.394531 433.410156 381.339844 436.308594 381.339844 Z M 436.441406 382.832031 C 435.695313 382.832031 435.078125 383.09375 434.550781 383.667969 C 434.023438 384.195313 433.671875 385.292969 433.542969 386.917969 C 433.367188 388.542969 433.277344 390.785156 433.277344 393.683594 C 433.277344 395.175781 433.367188 396.628906 433.585938 397.945313 C 433.71875 398.957031 434.070313 399.746094 434.597656 400.273438 C 435.078125 400.800781 435.695313 401.066406 436.355469 401.066406 C 436.96875 401.066406 437.496094 400.890625 437.933594 400.539063 C 438.507813 400.054688 438.859375 399.351563 439.035156 398.472656 C 439.339844 397.15625 439.472656 394.386719 439.472656 390.257813 C 439.472656 387.839844 439.339844 386.171875 439.078125 385.25 C 438.8125 384.371094 438.417969 383.710938 437.890625 383.269531 C 437.496094 382.964844 437.011719 382.832031 436.441406 382.832031 Z M 457.136719 381.910156 L 457.136719 386.480469 C 458.453125 384.414063 459.640625 383.007813 460.648438 382.347656 C 461.617188 381.691406 462.582031 381.339844 463.503906 381.339844 C 464.296875 381.339844 464.957031 381.601563 465.4375 382.085938 C 465.921875 382.566406 466.140625 383.269531 466.140625 384.148438 C 466.140625 385.117188 465.921875 385.863281 465.4375 386.390625 C 465 386.917969 464.429688 387.179688 463.769531 387.179688 C 463.023438 387.179688 462.363281 386.917969 461.835938 386.433594 C 461.265625 385.953125 460.914063 385.6875 460.824219 385.644531 C 460.695313 385.554688 460.519531 385.511719 460.34375 385.511719 C 459.945313 385.511719 459.550781 385.644531 459.15625 385.996094 C 458.585938 386.480469 458.144531 387.179688 457.839844 388.058594 C 457.398438 389.464844 457.179688 390.960938 457.179688 392.671875 L 457.179688 398.472656 C 457.179688 399.308594 457.222656 399.835938 457.355469 400.054688 C 457.488281 400.449219 457.75 400.714844 458.101563 400.890625 C 458.453125 401.066406 459.023438 401.195313 459.816406 401.242188 L 459.816406 401.988281 L 448.917969 401.988281 L 448.917969 401.242188 C 449.796875 401.152344 450.414063 400.933594 450.71875 400.539063 C 451.027344 400.097656 451.160156 399.042969 451.160156 397.285156 L 451.160156 386.171875 C 451.160156 384.984375 451.117188 384.28125 450.984375 383.929688 C 450.851563 383.535156 450.632813 383.226563 450.371094 383.050781 C 450.105469 382.875 449.621094 382.742188 448.917969 382.65625 L 448.917969 381.910156 Z M 479.410156 399 C 476.949219 401.152344 474.753906 402.25 472.820313 402.25 C 471.675781 402.25 470.710938 401.855469 469.964844 401.109375 C 469.21875 400.363281 468.820313 399.4375 468.820313 398.296875 C 468.820313 396.757813 469.480469 395.398438 470.796875 394.167969 C 472.117188 392.9375 474.972656 391.3125 479.410156 389.289063 L 479.410156 387.269531 C 479.410156 385.777344 479.324219 384.808594 479.148438 384.414063 C 479.015625 384.019531 478.707031 383.710938 478.222656 383.402344 C 477.785156 383.09375 477.257813 382.964844 476.6875 382.964844 C 475.71875 382.964844 474.972656 383.183594 474.359375 383.578125 C 474.007813 383.84375 473.832031 384.148438 473.832031 384.5 C 473.832031 384.765625 474.007813 385.160156 474.402344 385.601563 C 474.972656 386.214844 475.238281 386.785156 475.238281 387.355469 C 475.238281 388.058594 474.972656 388.675781 474.445313 389.160156 C 473.917969 389.640625 473.257813 389.90625 472.378906 389.90625 C 471.5 389.90625 470.753906 389.640625 470.140625 389.070313 C 469.523438 388.542969 469.21875 387.929688 469.21875 387.179688 C 469.21875 386.171875 469.613281 385.160156 470.449219 384.238281 C 471.28125 383.316406 472.378906 382.566406 473.875 382.085938 C 475.324219 381.601563 476.816406 381.339844 478.398438 381.339844 C 480.332031 381.339844 481.828125 381.734375 482.925781 382.523438 C 484.023438 383.359375 484.769531 384.238281 485.078125 385.160156 C 485.296875 385.777344 485.386719 387.136719 485.386719 389.289063 L 485.386719 397.066406 C 485.386719 397.988281 485.429688 398.5625 485.515625 398.78125 C 485.5625 399 485.691406 399.175781 485.824219 399.308594 C 485.957031 399.4375 486.132813 399.484375 486.308594 399.484375 C 486.703125 399.484375 487.054688 399.21875 487.449219 398.691406 L 488.109375 399.21875 C 487.40625 400.273438 486.660156 401.066406 485.867188 401.503906 C 485.121094 402.03125 484.242188 402.25 483.277344 402.25 C 482.132813 402.25 481.253906 401.988281 480.597656 401.460938 C 479.9375 400.890625 479.542969 400.097656 479.410156 399 Z M 479.410156 397.417969 L 479.410156 390.742188 C 477.695313 391.75 476.378906 392.847656 475.542969 393.992188 C 474.972656 394.78125 474.710938 395.527344 474.710938 396.320313 C 474.710938 396.980469 474.929688 397.550781 475.414063 398.078125 C 475.765625 398.472656 476.289063 398.648438 476.90625 398.648438 C 477.652344 398.648438 478.488281 398.253906 479.410156 397.417969 Z M 498.257813 374.527344 L 498.257813 381.910156 L 503.003906 381.910156 L 503.003906 384.019531 L 498.257813 384.019531 L 498.257813 396.40625 C 498.257813 397.59375 498.300781 398.339844 498.433594 398.648438 C 498.523438 399 498.699219 399.261719 499.003906 399.484375 C 499.269531 399.703125 499.488281 399.789063 499.753906 399.789063 C 500.675781 399.789063 501.554688 399.085938 502.34375 397.683594 L 503.003906 398.164063 C 501.859375 400.890625 499.972656 402.25 497.378906 402.25 C 496.105469 402.25 495.007813 401.898438 494.128906 401.195313 C 493.25 400.492188 492.679688 399.703125 492.457031 398.824219 C 492.328125 398.339844 492.238281 397.023438 492.238281 394.871094 L 492.238281 384.019531 L 489.601563 384.019531 L 489.601563 383.269531 C 491.40625 381.996094 492.941406 380.636719 494.214844 379.230469 C 495.492188 377.824219 496.589844 376.242188 497.554688 374.527344 Z M 509.726563 372.199219 C 510.691406 372.199219 511.4375 372.507813 512.097656 373.167969 C 512.757813 373.824219 513.066406 374.617188 513.066406 375.539063 C 513.066406 376.460938 512.757813 377.207031 512.097656 377.867188 C 511.4375 378.527344 510.648438 378.835938 509.726563 378.835938 C 508.804688 378.835938 508.054688 378.527344 507.398438 377.867188 C 506.738281 377.207031 506.429688 376.460938 506.429688 375.539063 C 506.429688 374.617188 506.738281 373.824219 507.398438 373.167969 C 508.054688 372.507813 508.804688 372.199219 509.726563 372.199219 Z M 512.757813 381.910156 L 512.757813 397.8125 C 512.757813 399.21875 512.933594 400.140625 513.242188 400.539063 C 513.59375 400.933594 514.25 401.195313 515.21875 401.242188 L 515.21875 401.988281 L 504.277344 401.988281 L 504.277344 401.242188 C 505.199219 401.195313 505.859375 400.933594 506.296875 400.449219 C 506.605469 400.140625 506.738281 399.21875 506.738281 397.8125 L 506.738281 386.082031 C 506.738281 384.632813 506.5625 383.753906 506.253906 383.316406 C 505.902344 382.917969 505.246094 382.699219 504.277344 382.65625 L 504.277344 381.910156 Z M 526.597656 381.339844 C 528.355469 381.339844 529.980469 381.777344 531.472656 382.699219 C 532.96875 383.578125 534.109375 384.851563 534.898438 386.523438 C 535.648438 388.191406 536.042969 389.992188 536.042969 391.96875 C 536.042969 394.78125 535.339844 397.15625 533.890625 399.085938 C 532.132813 401.417969 529.761719 402.558594 526.683594 402.558594 C 523.652344 402.558594 521.367188 401.503906 519.742188 399.394531 C 518.117188 397.285156 517.28125 394.828125 517.28125 392.058594 C 517.28125 389.160156 518.117188 386.652344 519.785156 384.546875 C 521.457031 382.394531 523.695313 381.339844 526.597656 381.339844 Z M 526.726563 382.832031 C 525.980469 382.832031 525.367188 383.09375 524.839844 383.667969 C 524.3125 384.195313 523.960938 385.292969 523.828125 386.917969 C 523.652344 388.542969 523.566406 390.785156 523.566406 393.683594 C 523.566406 395.175781 523.652344 396.628906 523.871094 397.945313 C 524.003906 398.957031 524.355469 399.746094 524.882813 400.273438 C 525.367188 400.800781 525.980469 401.066406 526.640625 401.066406 C 527.253906 401.066406 527.78125 400.890625 528.222656 400.539063 C 528.792969 400.054688 529.144531 399.351563 529.320313 398.472656 C 529.628906 397.15625 529.761719 394.386719 529.761719 390.257813 C 529.761719 387.839844 529.628906 386.171875 529.363281 385.25 C 529.101563 384.371094 528.707031 383.710938 528.179688 383.269531 C 527.78125 382.964844 527.300781 382.832031 526.726563 382.832031 Z M 547.332031 381.910156 L 547.332031 384.5 C 548.34375 383.402344 549.355469 382.613281 550.277344 382.085938 C 551.246094 381.601563 552.253906 381.339844 553.351563 381.339844 C 554.628906 381.339844 555.726563 381.691406 556.558594 382.4375 C 557.4375 383.140625 558.011719 384.0625 558.273438 385.117188 C 558.492188 385.953125 558.625 387.488281 558.625 389.816406 L 558.625 397.636719 C 558.625 399.175781 558.757813 400.140625 559.066406 400.539063 C 559.328125 400.890625 559.898438 401.152344 560.777344 401.242188 L 560.777344 401.988281 L 550.628906 401.988281 L 550.628906 401.242188 C 551.375 401.152344 551.949219 400.800781 552.253906 400.273438 C 552.472656 399.921875 552.605469 399.042969 552.605469 397.636719 L 552.605469 388.71875 C 552.605469 387.050781 552.5625 385.996094 552.429688 385.601563 C 552.296875 385.160156 552.078125 384.808594 551.773438 384.589844 C 551.464844 384.371094 551.113281 384.238281 550.761719 384.238281 C 549.53125 384.238281 548.386719 385.117188 547.332031 386.828125 L 547.332031 397.636719 C 547.332031 399.132813 547.464844 400.097656 547.773438 400.492188 C 548.035156 400.890625 548.5625 401.152344 549.3125 401.242188 L 549.3125 401.988281 L 539.164063 401.988281 L 539.164063 401.242188 C 539.996094 401.152344 540.613281 400.890625 540.964844 400.40625 C 541.183594 400.097656 541.316406 399.175781 541.316406 397.636719 L 541.316406 386.257813 C 541.316406 384.722656 541.183594 383.753906 540.917969 383.402344 C 540.613281 383.007813 540.039063 382.789063 539.164063 382.65625 L 539.164063 381.910156 Z M 600.804688 391.792969 L 599.703125 401.988281 L 573.914063 401.988281 L 573.914063 401.242188 L 574.882813 401.242188 C 575.714844 401.242188 576.417969 401.066406 576.902344 400.800781 C 577.296875 400.582031 577.5625 400.230469 577.78125 399.746094 C 577.914063 399.394531 578 398.472656 578 397.023438 L 578 377.824219 C 578 376.328125 577.914063 375.363281 577.78125 375.011719 C 577.605469 374.617188 577.296875 374.308594 576.8125 374.042969 C 576.332031 373.738281 575.714844 373.605469 574.882813 373.605469 L 573.914063 373.605469 L 573.914063 372.859375 L 589.421875 372.859375 L 589.421875 373.605469 L 588.148438 373.605469 C 587.316406 373.605469 586.613281 373.738281 586.128906 374.042969 C 585.734375 374.265625 585.425781 374.617188 585.207031 375.097656 C 585.074219 375.449219 584.984375 376.328125 584.984375 377.824219 L 584.984375 396.40625 C 584.984375 397.902344 585.074219 398.824219 585.25 399.261719 C 585.425781 399.660156 585.734375 399.964844 586.261719 400.1875 C 586.613281 400.273438 587.492188 400.363281 588.851563 400.363281 L 591.269531 400.363281 C 592.808594 400.363281 594.082031 400.097656 595.089844 399.527344 C 596.101563 399 597.023438 398.164063 597.769531 396.980469 C 598.519531 395.792969 599.222656 394.078125 599.878906 391.792969 Z M 608.625 372.199219 C 609.589844 372.199219 610.335938 372.507813 610.996094 373.167969 C 611.65625 373.824219 611.960938 374.617188 611.960938 375.539063 C 611.960938 376.460938 611.65625 377.207031 610.996094 377.867188 C 610.335938 378.527344 609.546875 378.835938 608.625 378.835938 C 607.699219 378.835938 606.953125 378.527344 606.292969 377.867188 C 605.636719 377.207031 605.328125 376.460938 605.328125 375.539063 C 605.328125 374.617188 605.636719 373.824219 606.292969 373.167969 C 606.953125 372.507813 607.699219 372.199219 608.625 372.199219 Z M 611.65625 381.910156 L 611.65625 397.8125 C 611.65625 399.21875 611.832031 400.140625 612.136719 400.539063 C 612.488281 400.933594 613.148438 401.195313 614.113281 401.242188 L 614.113281 401.988281 L 603.175781 401.988281 L 603.175781 401.242188 C 604.097656 401.195313 604.757813 400.933594 605.195313 400.449219 C 605.503906 400.140625 605.636719 399.21875 605.636719 397.8125 L 605.636719 386.082031 C 605.636719 384.632813 605.460938 383.753906 605.152344 383.316406 C 604.800781 382.917969 604.140625 382.699219 603.175781 382.65625 L 603.175781 381.910156 Z M 624.351563 381.910156 L 624.351563 384.589844 C 625.449219 383.359375 626.460938 382.523438 627.425781 382.042969 C 628.351563 381.558594 629.359375 381.339844 630.503906 381.339844 C 631.777344 381.339844 632.875 381.644531 633.753906 382.21875 C 634.589844 382.832031 635.292969 383.753906 635.730469 384.984375 C 636.875 383.710938 638.015625 382.742188 639.027344 382.171875 C 640.082031 381.601563 641.179688 381.339844 642.367188 381.339844 C 643.726563 381.339844 644.824219 381.644531 645.660156 382.304688 C 646.496094 382.917969 647.066406 383.753906 647.375 384.722656 C 647.726563 385.6875 647.855469 387.269531 647.855469 389.421875 L 647.855469 397.636719 C 647.855469 399.175781 647.988281 400.140625 648.296875 400.492188 C 648.558594 400.890625 649.132813 401.109375 650.011719 401.242188 L 650.011719 401.988281 L 639.640625 401.988281 L 639.640625 401.242188 C 640.476563 401.152344 641.089844 400.84375 641.441406 400.273438 C 641.707031 399.921875 641.839844 399 641.839844 397.636719 L 641.839844 388.984375 C 641.839844 387.226563 641.792969 386.082031 641.617188 385.601563 C 641.488281 385.117188 641.265625 384.722656 640.960938 384.5 C 640.652344 384.28125 640.300781 384.148438 639.859375 384.148438 C 639.246094 384.148438 638.628906 384.371094 638.015625 384.808594 C 637.355469 385.292969 636.742188 385.953125 636.082031 386.828125 L 636.082031 397.636719 C 636.082031 399.085938 636.214844 399.964844 636.433594 400.363281 C 636.785156 400.890625 637.402344 401.195313 638.324219 401.242188 L 638.324219 401.988281 L 627.953125 401.988281 L 627.953125 401.242188 C 628.527344 401.195313 628.964844 401.066406 629.273438 400.800781 C 629.582031 400.582031 629.800781 400.273438 629.933594 399.921875 C 630.019531 399.570313 630.0625 398.824219 630.0625 397.636719 L 630.0625 388.984375 C 630.0625 387.179688 630.019531 386.039063 629.84375 385.554688 C 629.710938 385.117188 629.492188 384.765625 629.140625 384.5 C 628.789063 384.238281 628.4375 384.105469 628.042969 384.105469 C 627.472656 384.105469 626.988281 384.238281 626.503906 384.546875 C 625.84375 384.984375 625.097656 385.777344 624.351563 386.828125 L 624.351563 397.636719 C 624.351563 399.042969 624.484375 399.964844 624.792969 400.449219 C 625.054688 400.890625 625.625 401.152344 626.503906 401.242188 L 626.503906 401.988281 L 616.179688 401.988281 L 616.179688 401.242188 C 617.015625 401.152344 617.628906 400.890625 617.980469 400.40625 C 618.199219 400.097656 618.332031 399.175781 618.332031 397.636719 L 618.332031 386.257813 C 618.332031 384.722656 618.199219 383.753906 617.9375 383.402344 C 617.628906 383.007813 617.058594 382.789063 616.179688 382.65625 L 616.179688 381.910156 Z M 657.433594 372.199219 C 658.402344 372.199219 659.148438 372.507813 659.808594 373.167969 C 660.464844 373.824219 660.773438 374.617188 660.773438 375.539063 C 660.773438 376.460938 660.464844 377.207031 659.808594 377.867188 C 659.148438 378.527344 658.359375 378.835938 657.433594 378.835938 C 656.511719 378.835938 655.765625 378.527344 655.105469 377.867188 C 654.445313 377.207031 654.140625 376.460938 654.140625 375.539063 C 654.140625 374.617188 654.445313 373.824219 655.105469 373.167969 C 655.765625 372.507813 656.511719 372.199219 657.433594 372.199219 Z M 660.464844 381.910156 L 660.464844 397.8125 C 660.464844 399.21875 660.640625 400.140625 660.949219 400.539063 C 661.300781 400.933594 661.960938 401.195313 662.925781 401.242188 L 662.925781 401.988281 L 651.988281 401.988281 L 651.988281 401.242188 C 652.910156 401.195313 653.570313 400.933594 654.007813 400.449219 C 654.316406 400.140625 654.445313 399.21875 654.445313 397.8125 L 654.445313 386.082031 C 654.445313 384.632813 654.273438 383.753906 653.964844 383.316406 C 653.613281 382.917969 652.953125 382.699219 651.988281 382.65625 L 651.988281 381.910156 Z M 672.8125 374.527344 L 672.8125 381.910156 L 677.558594 381.910156 L 677.558594 384.019531 L 672.8125 384.019531 L 672.8125 396.40625 C 672.8125 397.59375 672.855469 398.339844 672.988281 398.648438 C 673.074219 399 673.25 399.261719 673.558594 399.484375 C 673.824219 399.703125 674.042969 399.789063 674.304688 399.789063 C 675.226563 399.789063 676.105469 399.085938 676.898438 397.683594 L 677.558594 398.164063 C 676.414063 400.890625 674.527344 402.25 671.933594 402.25 C 670.660156 402.25 669.5625 401.898438 668.683594 401.195313 C 667.804688 400.492188 667.230469 399.703125 667.011719 398.824219 C 666.878906 398.339844 666.792969 397.023438 666.792969 394.871094 L 666.792969 384.019531 L 664.15625 384.019531 L 664.15625 383.269531 C 665.957031 381.996094 667.496094 380.636719 668.769531 379.230469 C 670.042969 377.824219 671.144531 376.242188 672.109375 374.527344 Z M 696.492188 391.222656 L 685.464844 391.222656 C 685.597656 393.859375 686.300781 395.96875 687.617188 397.507813 C 688.585938 398.691406 689.769531 399.308594 691.175781 399.308594 C 692.011719 399.308594 692.800781 399.042969 693.503906 398.605469 C 694.207031 398.121094 694.957031 397.242188 695.746094 396.011719 L 696.492188 396.496094 C 695.394531 398.691406 694.207031 400.273438 692.890625 401.195313 C 691.574219 402.121094 690.035156 402.558594 688.320313 402.558594 C 685.332031 402.558594 683.09375 401.417969 681.554688 399.132813 C 680.324219 397.285156 679.710938 395 679.710938 392.277344 C 679.710938 388.9375 680.632813 386.257813 682.433594 384.28125 C 684.234375 382.304688 686.34375 381.339844 688.804688 381.339844 C 690.824219 381.339844 692.582031 382.171875 694.078125 383.84375 C 695.570313 385.46875 696.363281 387.972656 696.492188 391.222656 Z M 691.222656 389.816406 C 691.222656 387.53125 691.089844 385.953125 690.871094 385.074219 C 690.605469 384.238281 690.210938 383.578125 689.683594 383.140625 C 689.375 382.875 688.980469 382.742188 688.453125 382.742188 C 687.75 382.742188 687.136719 383.09375 686.652344 383.84375 C 685.816406 385.117188 685.378906 386.828125 685.378906 389.070313 L 685.378906 389.816406 Z M 718.460938 372.859375 L 718.460938 395.96875 C 718.460938 397.507813 718.503906 398.429688 718.59375 398.691406 C 718.722656 399.175781 718.945313 399.527344 719.25 399.746094 C 719.558594 399.964844 720.128906 400.140625 720.921875 400.1875 L 720.921875 400.933594 L 712.441406 402.558594 L 712.441406 399.394531 C 711.429688 400.625 710.550781 401.460938 709.761719 401.898438 C 708.96875 402.339844 708.046875 402.558594 707.082031 402.558594 C 704.535156 402.558594 702.511719 401.417969 701.019531 399.132813 C 699.832031 397.285156 699.21875 395 699.21875 392.277344 C 699.21875 390.125 699.613281 388.191406 700.316406 386.523438 C 701.0625 384.808594 702.074219 383.492188 703.390625 382.65625 C 704.664063 381.777344 706.070313 381.339844 707.519531 381.339844 C 708.488281 381.339844 709.320313 381.515625 710.070313 381.910156 C 710.816406 382.261719 711.605469 382.917969 712.441406 383.84375 L 712.441406 377.734375 C 712.441406 376.199219 712.398438 375.320313 712.265625 374.96875 C 712.089844 374.570313 711.828125 374.265625 711.476563 374.089844 C 711.125 373.867188 710.507813 373.78125 709.542969 373.78125 L 709.542969 372.859375 Z M 712.441406 386.480469 C 711.386719 384.457031 710.113281 383.445313 708.574219 383.445313 C 708.046875 383.445313 707.652344 383.578125 707.300781 383.886719 C 706.773438 384.324219 706.335938 385.074219 705.984375 386.214844 C 705.675781 387.3125 705.5 389.027344 705.5 391.3125 C 705.5 393.859375 705.675781 395.703125 706.070313 396.933594 C 706.421875 398.121094 706.949219 399 707.566406 399.570313 C 707.917969 399.835938 708.355469 399.964844 708.925781 399.964844 C 710.15625 399.964844 711.34375 398.957031 712.441406 397.023438 Z M 712.441406 386.480469 "/>
</g>
<path style=" stroke:none;fill-rule:evenodd;fill:rgb(73.631287%,4.704285%,10.205078%);fill-opacity:1;" d="M 255.464844 191.742188 L 464.453125 191.792969 C 464.097656 197.152344 451.925781 213.390625 447.589844 218.195313 C 440.921875 225.589844 433.257813 232.765625 424.746094 237.890625 C 423.570313 238.597656 423.089844 239.195313 421.539063 240.039063 C 420.398438 240.660156 419.425781 241.382813 418.277344 242.078125 C 386.5 261.40625 341.175781 263.015625 308.023438 245.492188 C 306.5625 244.71875 306.25 244.390625 304.710938 243.507813 C 303.292969 242.699219 302.476563 242.53125 301.132813 241.671875 C 298.929688 240.265625 296.84375 239.230469 294.746094 237.753906 C 293.625 236.957031 292.734375 236.324219 291.59375 235.550781 C 287.371094 232.691406 283.585938 229.519531 279.832031 225.847656 C 278.890625 224.929688 277.925781 224.21875 277.042969 223.296875 C 271.234375 217.214844 255.910156 198.242188 255.464844 191.742188 Z M 340.410156 168.855469 C 340.808594 167.160156 343.929688 164.863281 346.355469 162.519531 C 348.347656 160.59375 350.382813 158.507813 352.4375 156.539063 L 376.898438 133.59375 C 380.914063 129.65625 384.9375 126.242188 389.121094 122.140625 C 391.015625 120.285156 393.203125 118.285156 395.324219 116.300781 C 401.347656 110.65625 400.804688 109.539063 407.078125 109.558594 L 424.507813 109.5625 C 435.5 109.5625 462.957031 109.097656 471.941406 109.660156 C 473.1875 113.6875 475.78125 125.976563 475.953125 130.738281 C 476.050781 133.394531 476.101563 136.128906 476.136719 138.785156 C 476.210938 144.382813 475.914063 149.625 475.636719 154.871094 C 475.527344 156.9375 474.097656 166.6875 473.226563 168.855469 Z M 245.386719 163.421875 C 243.964844 158.054688 244.644531 159.707031 243.90625 154.679688 C 242.464844 144.828125 243.023438 132.878906 244.777344 123.019531 C 245.085938 121.269531 245.6875 117.414063 246.191406 115.925781 C 246.527344 114.929688 246.878906 113.699219 247.246094 112.617188 C 247.582031 111.621094 248.003906 110.855469 248.296875 109.550781 L 371.109375 109.515625 C 370.71875 111.675781 371.203125 110.558594 369.761719 111.8125 L 360.738281 120.164063 C 359.855469 120.972656 360.097656 120.488281 359.304688 121.351563 C 350.160156 131.351563 333.8125 145.207031 323.992188 154.914063 C 321.769531 157.109375 319.730469 158.914063 318.003906 160.5 C 308.441406 169.277344 310.847656 168.953125 303.414063 169.027344 C 294.320313 169.121094 250.355469 169.601563 246.222656 168.828125 Z M 257.507813 86.824219 C 257.726563 84.285156 263.433594 76.246094 265.042969 74.035156 C 274.078125 61.601563 279.105469 57.316406 290.574219 48.167969 C 296.609375 43.355469 297.914063 43.191406 303.074219 40.070313 C 304.429688 39.25 308.292969 37.117188 309.832031 36.53125 C 311.921875 35.738281 311.644531 35.738281 313.488281 34.875 L 324.277344 30.578125 C 329.140625 28.96875 328.878906 29.394531 332.5625 28.472656 L 345.320313 25.785156 C 350.433594 24.730469 370.070313 24.453125 374.769531 25.878906 C 376.390625 26.367188 377.425781 26.3125 379.402344 26.4375 L 391.992188 29.324219 C 393.179688 29.714844 394.550781 29.898438 395.847656 30.398438 L 410.152344 36.488281 C 419.675781 41.28125 426.511719 45.484375 435.164063 52.597656 C 437.328125 54.378906 438.636719 55.703125 440.628906 57.445313 C 441.644531 58.328125 442.210938 59.089844 443.269531 60.125 C 448.875 65.621094 452.601563 70.703125 457.132813 77.054688 C 458.34375 78.757813 462.308594 85.347656 462.324219 86.859375 Z M 218.265625 139.679688 L 218.796875 156.242188 C 218.964844 158.078125 219.378906 158.160156 219.535156 159.828125 C 219.867188 163.402344 219.761719 164.398438 220.539063 167.523438 C 221.042969 169.546875 221.617188 172.554688 221.960938 174.589844 C 222.257813 176.332031 223.121094 179.859375 223.71875 181.398438 C 224.472656 183.332031 225.035156 186.085938 225.691406 187.992188 C 232.347656 207.40625 245.195313 227.214844 258.304688 240.230469 C 267.238281 249.097656 275.257813 256.097656 286.511719 262.578125 C 292.011719 265.75 294.667969 267.667969 299.921875 270.03125 C 300.96875 270.5 301.933594 271.066406 302.910156 271.480469 L 308.925781 273.96875 C 314.175781 276.007813 316.660156 276.671875 322.105469 277.910156 C 323.457031 278.21875 323.542969 278.625 324.988281 278.929688 C 326.46875 279.238281 327.554688 279.316406 328.859375 279.640625 C 344.703125 283.558594 352.417969 282.722656 368.652344 282.722656 C 372.25 282.722656 381.113281 282.03125 384.109375 281.167969 C 390.28125 279.390625 398.714844 278.335938 404.542969 276.113281 C 417.179688 271.296875 424.335938 268.28125 436.375 261.023438 C 454.808594 249.90625 473.234375 229.589844 484.128906 210.515625 C 485.3125 208.445313 486.148438 206.808594 487.015625 204.921875 C 488.085938 202.589844 488.875 201.414063 489.886719 198.863281 L 495.53125 183.417969 C 496.011719 181.980469 495.945313 181.269531 496.476563 179.859375 L 498.453125 173.003906 C 500.398438 161.996094 501.921875 154.316406 501.894531 141.914063 C 501.886719 139.078125 501.835938 136.253906 501.785156 133.417969 L 499.992188 117.785156 C 498.59375 108.507813 497.296875 105.570313 494.722656 96.671875 C 493.429688 92.203125 491.550781 88.074219 489.800781 83.691406 C 488.925781 81.5 487.96875 80.109375 487.070313 77.890625 C 485.800781 74.742188 478.878906 63.863281 477.113281 61.054688 C 474.996094 57.683594 463.25 44.085938 461.042969 41.914063 C 460.128906 41.019531 459.820313 40.777344 459 39.898438 L 447.1875 29.445313 C 437.589844 22.683594 424.917969 14.058594 413.535156 10.246094 L 407.085938 7.800781 C 402.390625 6.246094 397.921875 5.101563 393.199219 3.792969 C 384.804688 1.464844 370.878906 0.0898438 361.503906 0.0195313 C 355.949219 -0.0234375 349.824219 0.0351563 344.492188 0.566406 C 342.210938 0.792969 343.164063 1.140625 340.949219 1.34375 C 329.226563 2.433594 325.722656 4.382813 315.585938 6.949219 L 302.710938 11.960938 C 296.804688 14.113281 285.242188 20.660156 279.828125 24.460938 C 276.589844 26.738281 272.648438 29.503906 269.828125 31.898438 C 260.597656 39.742188 253.417969 47.054688 246.078125 56.863281 C 240.257813 64.636719 235.453125 72.886719 231.164063 81.699219 L 225.976563 93.875 C 224.332031 97.855469 220.992188 110.582031 220.609375 115.105469 C 220.417969 117.363281 220.207031 117.25 219.835938 118.734375 C 219.472656 120.191406 219.691406 121.429688 219.445313 122.886719 C 218.519531 128.332031 218.265625 133.507813 218.265625 139.679688 Z M 218.265625 139.679688 "/>
</g>
</svg>
